<svg width="108" height="101" viewBox="0 0 108 101" fill="none" xmlns="http://www.w3.org/2000/svg">
<mask id="path-1-inside-1_1_4" fill="white">
<path fill-rule="evenodd" clip-rule="evenodd" d="M106.39 84.3419L63.8564 5.92727C62.8074 3.98181 61.2077 2.38912 59.2576 1.3487C56.6083 -0.0691014 53.5063 -0.383479 50.6263 0.473947C47.7464 1.33137 45.3215 3.29124 43.879 5.92727L1.35223 84.3419C0.422324 86.0676 -0.0426236 88.0054 0.0030708 89.9651C0.0487652 91.9248 0.60353 93.8389 1.61285 95.5192C2.62217 97.1996 4.05132 98.5885 5.75986 99.5494C7.46841 100.51 9.39755 101.01 11.3577 101H96.3844C98.2632 101 100.113 100.537 101.771 99.6532C103.084 98.9561 104.247 98.0058 105.191 96.8572C106.135 95.7086 106.843 94.3845 107.273 92.9611C107.703 91.5377 107.847 90.0432 107.697 88.5639C107.546 87.0846 107.098 85.6497 106.39 84.3419ZM53.8656 87.5319C57.5842 87.5319 60.5988 84.5173 60.5988 80.7987C60.5988 77.0801 57.5842 74.0655 53.8656 74.0655C50.1469 74.0655 47.1324 77.0801 47.1324 80.7987C47.1324 84.5173 50.1469 87.5319 53.8656 87.5319ZM59.0807 26.9316C59.0807 24.0515 56.7459 21.7166 53.8657 21.7166C50.9855 21.7166 48.6507 24.0515 48.6507 26.9316L48.6507 60.5976C48.6507 63.4777 50.9855 65.8126 53.8657 65.8126C56.7459 65.8126 59.0807 63.4777 59.0807 60.5976V26.9316Z"/>
</mask>
<path fill-rule="evenodd" clip-rule="evenodd" d="M106.39 84.3419L63.8564 5.92727C62.8074 3.98181 61.2077 2.38912 59.2576 1.3487C56.6083 -0.0691014 53.5063 -0.383479 50.6263 0.473947C47.7464 1.33137 45.3215 3.29124 43.879 5.92727L1.35223 84.3419C0.422324 86.0676 -0.0426236 88.0054 0.0030708 89.9651C0.0487652 91.9248 0.60353 93.8389 1.61285 95.5192C2.62217 97.1996 4.05132 98.5885 5.75986 99.5494C7.46841 100.51 9.39755 101.01 11.3577 101H96.3844C98.2632 101 100.113 100.537 101.771 99.6532C103.084 98.9561 104.247 98.0058 105.191 96.8572C106.135 95.7086 106.843 94.3845 107.273 92.9611C107.703 91.5377 107.847 90.0432 107.697 88.5639C107.546 87.0846 107.098 85.6497 106.39 84.3419ZM53.8656 87.5319C57.5842 87.5319 60.5988 84.5173 60.5988 80.7987C60.5988 77.0801 57.5842 74.0655 53.8656 74.0655C50.1469 74.0655 47.1324 77.0801 47.1324 80.7987C47.1324 84.5173 50.1469 87.5319 53.8656 87.5319ZM59.0807 26.9316C59.0807 24.0515 56.7459 21.7166 53.8657 21.7166C50.9855 21.7166 48.6507 24.0515 48.6507 26.9316L48.6507 60.5976C48.6507 63.4777 50.9855 65.8126 53.8657 65.8126C56.7459 65.8126 59.0807 63.4777 59.0807 60.5976V26.9316Z" fill="url(#paint0_linear_1_4)" fill-opacity="0.06"/>
<path d="M63.8564 5.92727L62.9762 6.40187L62.9774 6.40406L63.8564 5.92727ZM106.39 84.3419L107.269 83.866L107.269 83.8652L106.39 84.3419ZM59.2576 1.3487L58.7858 2.23039L58.7869 2.23098L59.2576 1.3487ZM43.879 5.92727L43.0018 5.44723L43 5.45053L43.879 5.92727ZM1.35223 84.3419L0.473177 83.8652L0.471911 83.8676L1.35223 84.3419ZM0.0030708 89.9651L-0.996657 89.9884L-0.996657 89.9884L0.0030708 89.9651ZM1.61285 95.5192L0.755602 96.0342L0.755603 96.0342L1.61285 95.5192ZM5.75986 99.5494L5.26966 100.421L5.26967 100.421L5.75986 99.5494ZM11.3577 101L11.3577 99.9998L11.3525 99.9999L11.3577 101ZM101.771 99.6532L101.302 98.7699L101.3 98.7709L101.771 99.6532ZM105.191 96.8572L105.964 97.4923L105.964 97.4923L105.191 96.8572ZM107.273 92.9611L108.23 93.2503L108.23 93.2503L107.273 92.9611ZM107.697 88.5639L106.702 88.665L106.702 88.665L107.697 88.5639ZM53.8657 21.7166L53.8657 20.7166L53.8657 20.7166L53.8657 21.7166ZM48.6507 26.9316L47.6507 26.9316L47.6507 26.9316L48.6507 26.9316ZM48.6507 60.5976L49.6507 60.5976L49.6507 60.5976L48.6507 60.5976ZM62.9774 6.40406L105.511 84.8187L107.269 83.8652L64.7354 5.45047L62.9774 6.40406ZM58.7869 2.23098C60.5633 3.17876 62.0206 4.62964 62.9762 6.40187L64.7366 5.45266C63.5942 3.33398 61.852 1.59948 59.7283 0.466419L58.7869 2.23098ZM50.9117 1.43237C53.539 0.650163 56.3688 0.936962 58.7858 2.23039L59.7295 0.467012C56.8477 -1.07516 53.4736 -1.41712 50.341 -0.484478L50.9117 1.43237ZM44.7563 6.4073C46.0722 4.00252 48.2844 2.21458 50.9117 1.43237L50.341 -0.484478C47.2084 0.448165 44.5708 2.57996 43.0018 5.44723L44.7563 6.4073ZM2.23127 84.8187L44.7581 6.404L43 5.45053L0.47318 83.8652L2.23127 84.8187ZM1.0028 89.9418C0.961149 88.1555 1.38494 86.3892 2.23254 84.8163L0.471911 83.8676C-0.540296 85.7459 -1.0464 87.8553 -0.996657 89.9884L1.0028 89.9418ZM2.4701 95.0043C1.55011 93.4727 1.04445 91.728 1.0028 89.9418L-0.996657 89.9884C-0.946919 92.1215 -0.343052 94.205 0.755602 96.0342L2.4701 95.0043ZM6.25006 98.6778C4.69274 97.802 3.39009 96.536 2.4701 95.0043L0.755603 96.0342C1.85426 97.8633 3.4099 99.3751 5.26966 100.421L6.25006 98.6778ZM11.3525 99.9999C9.56579 100.009 7.80739 99.5537 6.25006 98.6778L5.26967 100.421C7.12943 101.467 9.22932 102.011 11.363 102L11.3525 99.9999ZM96.3844 99.9998H11.3577V102H96.3844V99.9998ZM101.3 98.7709C99.7874 99.5778 98.0991 99.9998 96.3844 99.9998V102C98.4274 102 100.439 101.497 102.242 100.536L101.3 98.7709ZM104.419 96.2222C103.558 97.2688 102.499 98.1347 101.302 98.7699L102.24 100.537C103.67 99.7775 104.935 98.7429 105.964 97.4923L104.419 96.2222ZM106.316 92.6719C105.924 93.9689 105.279 95.1755 104.419 96.2222L105.964 97.4923C106.992 96.2418 107.762 94.8 108.23 93.2503L106.316 92.6719ZM106.702 88.665C106.839 90.013 106.708 91.3748 106.316 92.6719L108.23 93.2503C108.698 91.7005 108.855 90.0734 108.691 88.4627L106.702 88.665ZM105.51 84.8179C106.157 86.0121 106.565 87.32 106.702 88.665L108.691 88.4627C108.527 86.8492 108.039 85.2872 107.269 83.866L105.51 84.8179ZM59.5988 80.7987C59.5988 83.965 57.0319 86.5319 53.8656 86.5319V88.5319C58.1365 88.5319 61.5988 85.0696 61.5988 80.7987H59.5988ZM53.8656 75.0655C57.0319 75.0655 59.5988 77.6323 59.5988 80.7987H61.5988C61.5988 76.5278 58.1365 73.0655 53.8656 73.0655V75.0655ZM48.1324 80.7987C48.1324 77.6323 50.6992 75.0655 53.8656 75.0655V73.0655C49.5947 73.0655 46.1324 76.5278 46.1324 80.7987H48.1324ZM53.8656 86.5319C50.6992 86.5319 48.1324 83.965 48.1324 80.7987H46.1324C46.1324 85.0696 49.5947 88.5319 53.8656 88.5319V86.5319ZM53.8657 22.7166C56.1936 22.7166 58.0807 24.6038 58.0807 26.9316H60.0807C60.0807 23.4992 57.2982 20.7166 53.8657 20.7166V22.7166ZM49.6507 26.9316C49.6507 24.6038 51.5378 22.7166 53.8657 22.7166L53.8657 20.7166C50.4333 20.7166 47.6507 23.4992 47.6507 26.9316H49.6507ZM49.6507 60.5976L49.6507 26.9316L47.6507 26.9316L47.6507 60.5976L49.6507 60.5976ZM53.8657 64.8126C51.5378 64.8126 49.6507 62.9255 49.6507 60.5976H47.6507C47.6507 64.03 50.4333 66.8126 53.8657 66.8126V64.8126ZM58.0807 60.5976C58.0807 62.9255 56.1936 64.8126 53.8657 64.8126V66.8126C57.2982 66.8126 60.0807 64.03 60.0807 60.5976H58.0807ZM58.0807 26.9316V60.5976H60.0807V26.9316H58.0807Z" fill="url(#paint1_linear_1_4)" mask="url(#path-1-inside-1_1_4)"/>
<defs>
<linearGradient id="paint0_linear_1_4" x1="53.8772" y1="0" x2="53.8772" y2="129.5" gradientUnits="userSpaceOnUse">
<stop offset="0.508679" stop-color="#505053"/>
<stop offset="1" stop-color="#131316" stop-opacity="0"/>
</linearGradient>
<linearGradient id="paint1_linear_1_4" x1="53.8772" y1="0" x2="53.8772" y2="112.5" gradientUnits="userSpaceOnUse">
<stop offset="0.150672" stop-color="white" stop-opacity="0.21"/>
<stop offset="1" stop-color="#131316" stop-opacity="0"/>
</linearGradient>
</defs>
</svg>
